<?xml version="1.0" standalone="no"?>
<!DOCTYPE svg PUBLIC "-//W3C//DTD SVG 20010904//EN"
 "http://www.w3.org/TR/2001/REC-SVG-20010904/DTD/svg10.dtd">
<svg version="1.0" xmlns="http://www.w3.org/2000/svg"
 width="1794.000000pt" height="1794.000000pt" viewBox="0 0 1794.000000 1794.000000"
 preserveAspectRatio="xMidYMid meet">
<metadata>
Created by potrace 1.11, written by Peter Selinger 2001-2013
</metadata>
<g transform="translate(0.000000,1794.000000) scale(0.100000,-0.100000)"
fill="#000000" stroke="none">
<path d="M6225 16093 c-53 -125 -105 -246 -115 -268 -10 -22 -102 -236 -205
-475 -203 -473 -203 -473 -234 -542 -11 -26 -21 -50 -21 -53 0 -2 -11 -28 -24
-57 -13 -29 -43 -98 -66 -153 -23 -55 -51 -120 -62 -145 -11 -25 -24 -54 -29
-65 -71 -162 -191 -442 -193 -450 -1 -5 -4 -14 -8 -20 -3 -5 -65 -149 -138
-320 -73 -170 -140 -328 -150 -350 -10 -22 -136 -314 -279 -650 -144 -335
-266 -619 -271 -630 -5 -11 -59 -137 -120 -280 -61 -143 -117 -273 -124 -290
-8 -16 -35 -79 -61 -140 -26 -60 -55 -128 -65 -150 -10 -22 -37 -85 -60 -140
-23 -55 -48 -113 -56 -130 -17 -39 -531 -1236 -721 -1680 -80 -186 -156 -364
-170 -395 -13 -30 -28 -64 -33 -75 -4 -11 -20 -46 -34 -78 -14 -32 -26 -60
-26 -63 0 -3 -9 -26 -21 -51 -11 -25 -158 -366 -326 -757 -167 -391 -311 -724
-318 -741 -8 -16 -69 -158 -135 -315 -67 -157 -130 -303 -140 -325 -10 -22
-44 -101 -75 -175 -32 -74 -66 -153 -75 -175 -10 -22 -59 -137 -110 -255 -50
-118 -95 -224 -100 -235 -25 -57 -81 -186 -450 -1046 -221 -513 -407 -947
-414 -964 -8 -16 -26 -59 -41 -95 -15 -36 -35 -83 -45 -105 -10 -22 -44 -101
-75 -175 -32 -74 -60 -139 -63 -145 -4 -5 -7 -14 -8 -20 -1 -5 -13 -35 -27
-65 -38 -80 -519 -1202 -524 -1223 -5 -16 423 -17 8899 -17 l8904 0 44 23 c81
40 77 1 76 738 -1 603 -2 652 -18 655 -9 1 -68 5 -130 9 -62 3 -129 8 -148 10
-30 3 -123 9 -295 20 -85 5 -252 17 -295 20 -25 2 -90 7 -145 10 -55 4 -117 8
-137 10 -21 2 -86 7 -145 10 -59 3 -128 8 -153 10 -25 2 -90 7 -145 10 -55 4
-116 8 -135 10 -19 2 -87 6 -150 10 -63 4 -131 8 -150 10 -19 2 -82 6 -140 10
-58 3 -127 8 -155 10 -27 2 -90 7 -140 10 -49 3 -115 8 -145 10 -65 5 -210 15
-295 20 -33 2 -96 6 -140 9 -171 12 -322 23 -445 31 -47 3 -112 8 -145 10 -33
3 -94 7 -135 10 -110 7 -237 15 -300 20 -30 2 -93 6 -140 10 -103 7 -212 14
-300 20 -36 3 -99 7 -140 10 -41 3 -104 7 -140 10 -36 3 -99 7 -140 10 -41 2
-109 7 -150 10 -41 3 -109 8 -150 10 -41 2 -106 7 -145 10 -85 7 -169 12 -294
20 -52 4 -115 8 -140 10 -25 2 -95 7 -156 11 -60 4 -128 8 -150 10 -22 1 -89
6 -150 9 -60 4 -132 8 -160 10 -216 14 -463 20 -845 20 -435 0 -679 -8 -925
-30 -33 -3 -89 -7 -125 -10 -36 -3 -83 -8 -105 -10 -22 -3 -60 -7 -85 -10 -65
-6 -247 -28 -330 -40 -14 -2 -50 -7 -80 -10 -30 -4 -62 -9 -70 -10 -21 -4
-148 -23 -190 -30 -19 -2 -46 -7 -60 -10 -13 -2 -42 -7 -65 -10 -22 -3 -47 -8
-55 -10 -8 -2 -35 -7 -60 -10 -25 -3 -52 -8 -60 -10 -8 -3 -31 -7 -50 -10 -47
-6 -277 -47 -480 -84 -91 -17 -178 -33 -195 -36 -16 -3 -39 -7 -51 -10 -12 -3
-39 -7 -60 -10 -21 -4 -46 -8 -54 -10 -8 -3 -85 -18 -170 -34 -202 -39 -773
-156 -910 -186 -8 -2 -51 -11 -95 -20 -44 -9 -87 -18 -95 -20 -8 -2 -107 -24
-220 -49 -113 -26 -214 -48 -225 -50 -11 -3 -128 -29 -260 -60 -132 -30 -251
-57 -265 -60 -14 -3 -140 -33 -280 -66 -140 -33 -264 -62 -275 -65 -11 -2 -78
-18 -150 -35 -71 -17 -168 -40 -215 -51 -47 -12 -92 -22 -100 -24 -8 -2 -62
-14 -120 -28 -58 -14 -172 -42 -255 -61 -82 -19 -190 -44 -238 -55 -49 -12
-102 -23 -119 -26 -17 -3 -34 -8 -38 -10 -4 -2 -22 -7 -41 -10 -19 -3 -50 -10
-70 -16 -21 -5 -57 -13 -80 -18 -61 -12 -635 -139 -684 -151 -34 -8 -142 -30
-224 -46 -13 -3 -26 -6 -30 -7 -8 -3 -11 10 -6 25 2 7 30 87 63 178 50 138 64
165 83 171 99 30 236 70 499 144 168 47 334 95 370 105 36 10 153 44 260 74
199 57 282 81 335 97 56 17 453 130 472 134 10 2 59 16 108 30 50 15 119 35
155 45 135 38 355 101 645 185 165 47 307 88 315 90 29 7 126 34 195 55 39 11
77 22 85 24 8 3 222 64 475 136 659 189 734 210 795 227 30 8 156 44 280 80
124 36 254 73 290 83 36 10 184 52 330 93 294 84 330 94 379 102 19 3 37 8 41
10 3 2 17 6 31 9 13 2 110 22 214 45 183 38 296 61 342 66 11 2 29 6 40 9 10
3 41 8 68 11 28 3 57 7 65 10 16 4 43 8 170 25 47 6 96 13 110 15 30 4 110 12
205 21 39 3 84 8 100 9 252 26 931 26 1255 0 160 -12 210 -16 260 -20 68 -4
183 -14 230 -20 19 -3 69 -7 110 -10 41 -4 86 -8 100 -10 14 -2 57 -7 95 -10
39 -3 84 -8 100 -10 17 -2 68 -6 115 -10 47 -4 96 -8 110 -10 23 -4 74 -9 185
-20 22 -2 72 -7 110 -10 39 -3 84 -8 100 -10 30 -4 101 -11 198 -20 53 -5 107
-10 207 -20 30 -3 80 -8 110 -11 30 -3 69 -7 85 -9 17 -2 66 -7 110 -10 44 -4
87 -8 96 -10 8 -2 55 -6 105 -10 49 -4 97 -9 106 -10 9 -2 49 -6 90 -10 40 -3
89 -8 108 -10 42 -5 116 -13 190 -20 30 -3 75 -7 100 -10 25 -3 68 -7 95 -9
28 -3 100 -9 160 -16 61 -6 133 -13 160 -15 28 -3 77 -8 110 -12 33 -3 74 -7
90 -8 66 -6 208 -20 305 -30 103 -11 135 -14 190 -19 30 -3 78 -8 105 -10 28
-3 79 -8 115 -12 86 -9 102 -10 190 -18 41 -4 86 -9 100 -11 14 -2 59 -6 100
-10 41 -4 86 -8 100 -10 14 -2 57 -6 95 -10 39 -3 88 -8 110 -10 22 -3 70 -7
107 -10 37 -3 75 -7 85 -9 10 -2 54 -7 98 -10 44 -4 98 -9 120 -11 43 -5 121
-13 200 -20 51 -5 129 -13 200 -20 22 -2 67 -7 100 -10 33 -3 78 -8 100 -10
22 -2 65 -7 95 -9 123 -12 177 -17 210 -21 19 -2 69 -7 110 -10 41 -4 86 -8
100 -11 14 -2 64 -7 111 -10 68 -5 87 -3 91 7 7 19 2 3408 -5 3439 -3 14 -8
48 -12 75 -43 361 -166 604 -400 791 -96 77 -214 143 -432 240 -82 37 -405
147 -683 232 -52 16 -120 37 -150 46 -30 10 -183 57 -340 106 -157 49 -357
111 -445 138 -88 28 -176 55 -195 60 -19 6 -78 24 -130 41 -350 109 -841 261
-847 261 -2 0 -41 78 -87 173 -46 94 -132 271 -191 392 -59 121 -142 292 -185
380 -74 153 -135 277 -375 770 -59 121 -145 297 -190 390 -45 94 -131 269
-190 390 -59 121 -142 292 -185 380 -127 262 -344 708 -562 1155 -50 102 -124
255 -166 340 -41 85 -134 277 -207 425 -72 149 -174 357 -226 464 -52 107
-134 276 -184 375 -99 199 -81 179 -186 200 -13 2 -85 18 -159 35 -74 16 -146
32 -160 35 -14 2 -58 12 -99 20 -41 9 -75 15 -76 14 -3 -3 -66 -274 -67 -285
0 -5 -7 -28 -14 -53 -7 -25 -15 -56 -18 -70 -7 -36 -104 -437 -117 -485 -6
-22 -13 -51 -15 -65 -3 -14 -11 -47 -19 -75 -8 -27 -16 -61 -19 -75 -2 -14
-14 -65 -26 -115 -12 -49 -24 -97 -26 -105 -2 -8 -16 -69 -32 -135 -64 -261
-216 -889 -253 -1045 -22 -91 -58 -239 -80 -330 -22 -91 -56 -230 -75 -310
-20 -80 -55 -226 -79 -325 -24 -99 -60 -247 -80 -330 -20 -82 -52 -215 -72
-295 -19 -79 -37 -153 -39 -163 -2 -10 -6 -27 -9 -37 -3 -10 -7 -27 -9 -37 -6
-27 -30 -130 -76 -318 -23 -93 -43 -177 -45 -185 -2 -8 -26 -107 -53 -220 -27
-113 -53 -221 -58 -240 -10 -44 -8 -38 -22 -85 -10 -35 -18 -43 -59 -59 -85
-34 -276 -125 -397 -190 -38 -20 -70 -35 -71 -34 -3 5 -48 144 -123 378 -94
296 -215 670 -227 705 -7 22 -41 128 -75 235 -34 107 -72 227 -85 265 -13 39
-53 165 -90 280 -37 116 -73 228 -80 250 -8 22 -51 155 -95 295 -45 140 -90
280 -100 310 -10 30 -37 111 -58 180 -139 433 -196 612 -212 660 -10 30 -34
105 -53 165 -19 61 -78 243 -130 405 -162 503 -280 872 -282 880 -1 3 -38 120
-84 260 -45 140 -119 368 -163 505 -44 138 -102 318 -128 400 -27 83 -88 272
-136 420 -48 149 -88 271 -89 273 -2 2 -350 81 -471 106 l-31 7 -98 -228z
m280 -3014 c8 -30 23 -85 34 -124 54 -194 183 -662 186 -675 2 -8 63 -229 135
-490 73 -261 133 -482 135 -490 2 -8 13 -46 24 -85 27 -96 162 -586 167 -605
1 -8 30 -112 63 -230 90 -326 139 -504 172 -625 17 -60 39 -141 50 -179 12
-38 22 -76 24 -85 2 -13 20 -76 30 -111 1 -3 5 -18 10 -35 4 -16 21 -77 37
-135 16 -58 38 -136 48 -175 10 -38 42 -153 70 -255 28 -102 60 -218 71 -258
l20 -74 -43 -36 c-23 -20 -79 -69 -123 -107 -44 -39 -147 -129 -230 -200 -82
-71 -152 -132 -155 -136 -3 -3 -75 -66 -160 -140 -85 -74 -171 -148 -190 -165
-19 -17 -91 -80 -160 -140 -69 -60 -130 -113 -136 -119 -6 -5 -37 -32 -69 -60
-32 -27 -63 -54 -69 -60 -6 -5 -45 -39 -86 -74 -41 -35 -82 -72 -90 -80 -8 -9
-27 -25 -41 -36 -21 -17 -126 -107 -163 -140 -6 -6 -45 -39 -86 -75 -41 -36
-77 -68 -80 -71 -4 -5 -124 -109 -210 -183 -70 -59 -176 -152 -185 -162 -5 -6
-62 -55 -125 -110 -63 -54 -117 -101 -120 -104 -3 -3 -54 -48 -115 -100 -60
-52 -115 -99 -121 -105 -10 -9 -113 -99 -158 -138 -63 -55 -131 -113 -140
-122 -6 -6 -76 -67 -156 -136 -223 -195 -639 -558 -710 -619 -35 -30 -82 -71
-104 -91 -23 -20 -99 -87 -171 -149 -71 -63 -161 -141 -199 -174 -39 -34 -66
-55 -62 -48 8 13 90 233 147 392 17 47 35 94 40 105 4 11 31 81 58 155 27 74
100 270 161 435 61 165 156 422 211 570 56 149 123 331 151 405 27 74 66 178
85 230 20 52 46 122 58 155 13 33 58 155 100 270 42 116 80 219 86 230 5 11
24 63 43 115 18 52 56 156 84 230 188 506 326 878 459 1240 35 96 70 191 78
210 28 70 135 367 135 374 0 3 8 25 19 49 10 23 74 193 141 377 67 184 144
394 171 467 27 72 49 134 49 138 0 4 6 21 14 38 8 18 25 64 39 102 121 334
188 518 201 551 18 46 200 546 262 719 23 66 57 158 74 205 17 47 42 114 54
150 13 36 44 121 69 190 25 69 74 203 108 297 34 95 64 171 66 169 2 -1 10
-27 18 -57z m5005 -1129 c40 -91 84 -190 98 -220 13 -30 41 -93 62 -140 34
-78 70 -157 105 -235 72 -159 167 -373 212 -475 30 -69 66 -150 80 -180 14
-30 41 -91 60 -135 19 -44 48 -107 63 -140 15 -33 51 -114 80 -180 29 -66 70
-157 91 -203 22 -46 39 -85 39 -87 0 -3 16 -38 35 -79 39 -84 115 -255 115
-260 0 -2 -26 5 -57 16 -32 10 -66 20 -78 23 -11 2 -36 9 -55 15 -65 20 -385
99 -465 114 -44 9 -89 17 -100 19 -38 8 -90 17 -130 22 -22 3 -69 10 -105 15
-36 5 -92 12 -125 15 -33 3 -82 7 -110 10 -27 3 -115 7 -195 10 -80 2 -144 8
-143 12 1 4 6 33 10 63 4 30 8 57 8 60 8 30 32 143 41 196 3 16 21 112 40 214
20 102 38 196 40 210 3 14 16 81 29 150 13 69 27 141 30 160 3 19 8 42 10 50
2 8 7 31 10 50 3 19 19 107 36 195 17 88 33 171 36 185 5 33 61 320 75 390 6
30 12 64 14 75 2 11 13 75 26 142 18 96 25 118 33 105 7 -10 44 -91 85 -182z
m540 -3085 c19 -4 94 -22 165 -42 72 -19 141 -37 155 -40 14 -3 95 -26 180
-50 85 -24 164 -46 174 -48 10 -3 60 -16 110 -31 50 -14 98 -27 106 -29 8 -2
89 -25 180 -50 91 -26 188 -53 215 -60 165 -45 465 -128 490 -136 32 -10 240
-68 265 -74 8 -1 179 -49 380 -105 201 -56 388 -108 415 -115 28 -8 91 -25
140 -39 156 -44 309 -86 325 -90 25 -7 742 -205 795 -220 28 -8 84 -24 125
-35 41 -12 116 -33 165 -47 50 -14 99 -28 110 -30 11 -3 25 -6 30 -8 6 -1 30
-8 55 -15 25 -6 68 -18 95 -26 28 -8 106 -31 175 -51 69 -19 161 -54 205 -77
106 -56 217 -165 263 -260 69 -143 65 -53 66 -1580 1 -759 -2 -1381 -5 -1383
-4 -2 -42 1 -85 6 -44 6 -99 12 -124 15 -25 3 -58 8 -75 10 -16 2 -52 7 -80
10 -53 6 -98 12 -155 20 -19 2 -57 7 -85 10 -27 3 -63 8 -80 10 -16 3 -52 7
-80 10 -118 14 -141 16 -165 20 -38 6 -100 14 -150 19 -90 10 -146 17 -170 21
-14 2 -50 7 -80 10 -30 3 -66 8 -80 10 -14 2 -50 7 -80 10 -30 3 -66 8 -80 10
-14 2 -51 7 -83 10 -32 4 -67 8 -78 10 -11 2 -50 7 -87 11 -36 3 -74 7 -83 9
-9 2 -38 6 -65 9 -27 4 -65 9 -84 11 -19 2 -60 7 -90 10 -30 4 -66 8 -80 10
-14 2 -47 7 -75 10 -27 3 -61 8 -75 10 -14 2 -47 7 -75 10 -27 3 -214 25 -415
50 -201 25 -385 48 -410 51 -25 3 -56 7 -70 9 -14 3 -52 7 -85 10 -33 4 -71 8
-85 10 -33 5 -94 13 -155 20 -27 3 -61 7 -75 10 -14 2 -50 7 -80 10 -54 5 -82
9 -158 19 -20 3 -62 8 -92 11 -30 4 -66 8 -80 10 -14 3 -47 7 -75 10 -27 3
-66 7 -85 10 -19 2 -57 7 -85 10 -27 3 -61 8 -75 10 -14 2 -47 7 -75 10 -27 3
-66 8 -85 10 -19 3 -60 7 -90 10 -30 4 -66 8 -80 10 -65 10 -211 28 -410 51
-25 3 -56 7 -70 9 -14 3 -47 7 -75 10 -74 9 -111 14 -210 30 -167 27 -318 42
-448 44 l-27 1 2 1768 3 1767 28 80 c57 161 133 236 285 281 65 19 95 22 192
19 63 -2 131 -7 150 -10z m11 -5775 c173 -56 316 -225 368 -435 26 -108 22
-270 -9 -370 -56 -178 -154 -301 -295 -371 -78 -38 -96 -43 -175 -48 -189 -12
-378 101 -474 283 -66 126 -86 216 -82 366 4 130 33 233 94 333 35 59 136 172
153 172 4 0 14 6 21 13 13 13 60 37 113 57 17 7 53 14 80 17 28 3 51 6 53 8 7
6 103 -9 153 -25z m4981 -289 c95 -46 164 -119 217 -228 39 -80 46 -118 46
-248 0 -114 -21 -210 -53 -247 -8 -10 -12 -18 -8 -18 13 0 -57 -90 -100 -130
-183 -169 -454 -129 -596 86 -25 38 -51 85 -58 104 -95 266 3 564 222 676 104
53 227 55 330 5z"/>
</g>
</svg>
